<svg width="21" height="21" viewBox="0 0 21 21" fill="none" xmlns="http://www.w3.org/2000/svg">
<g clip-path="url(#clip0_7_756)">
<path d="M10.1399 1.82353C12.8476 1.82353 13.1653 1.83043 14.2359 1.88569C15.2237 1.93404 15.7625 2.09291 16.1216 2.23797C16.5982 2.42446 16.9298 2.63859 17.289 2.99777C17.6412 3.35004 17.8623 3.6885 18.0488 4.1651C18.1869 4.52428 18.3527 5.05614 18.401 6.0508C18.4494 7.12143 18.4632 7.43916 18.4632 10.1468C18.4632 12.8545 18.4494 13.1722 18.401 14.2429C18.3527 15.2306 18.1938 15.7694 18.0488 16.1285C17.8623 16.6052 17.6482 16.9367 17.289 17.2959C16.9367 17.6482 16.5982 17.8692 16.1216 18.0557C15.7625 18.1938 15.2306 18.3596 14.2359 18.408C13.1653 18.4563 12.8476 18.4701 10.1399 18.4701C7.43226 18.4701 7.11452 18.4632 6.04389 18.408C5.05614 18.3596 4.51737 18.2007 4.1582 18.0557C3.68159 17.8692 3.35004 17.6551 2.99086 17.2959C2.63859 16.9436 2.41756 16.6052 2.23106 16.1285C2.09291 15.7694 1.92714 15.2375 1.87879 14.2429C1.83043 13.1722 1.81662 12.8545 1.81662 10.1468C1.81662 7.43916 1.82353 7.12143 1.87879 6.0508C1.92714 5.06305 2.086 4.52428 2.23106 4.1651C2.41756 3.6885 2.63168 3.35695 2.99086 2.99777C3.34313 2.6455 3.68159 2.42446 4.1582 2.23797C4.51737 2.09982 5.04924 1.93404 6.04389 1.88569C7.10761 1.83734 7.43226 1.82353 10.1399 1.82353ZM10.1399 0C7.3839 0 7.03854 0.0138146 5.961 0.0621657C4.87655 0.110517 4.14438 0.283199 3.49509 0.531862C2.82509 0.79434 2.26559 1.1397 1.6992 1.6992C1.1328 2.26559 0.787432 2.82509 0.531862 3.49509C0.283199 4.13747 0.110517 4.87655 0.0621657 5.95409C0.0138146 7.03854 0 7.3839 0 10.1399C0 12.8959 0.0138146 13.2413 0.0621657 14.3188C0.110517 15.3964 0.283199 16.1355 0.531862 16.7778C0.787432 17.4478 1.1397 18.0073 1.6992 18.5737C2.26559 19.1401 2.82509 19.4855 3.49509 19.7411C4.13747 19.9897 4.87655 20.1624 5.95409 20.2108C7.03854 20.2591 7.3839 20.2729 10.133 20.2729C12.889 20.2729 13.2344 20.2591 14.3119 20.2108C15.3895 20.1624 16.1285 19.9897 16.7709 19.7411C17.4409 19.4786 18.0004 19.1332 18.5668 18.5737C19.1332 18.0073 19.4786 17.4478 19.7342 16.7778C19.9828 16.1355 20.1555 15.3964 20.2039 14.3188C20.2522 13.2344 20.266 12.889 20.266 10.1399C20.266 7.3839 20.2522 7.03854 20.2039 5.961C20.1555 4.88346 19.9828 4.14438 19.7342 3.502C19.4717 2.83199 19.1263 2.2725 18.5668 1.7061C18.0004 1.1397 17.4409 0.79434 16.7709 0.538769C16.1285 0.290107 15.3895 0.117424 14.3119 0.069073C13.2413 0.0138146 12.8959 0 10.1399 0Z" fill="#9366D5"/>
<path d="M10.14 4.93188C7.26655 4.93188 4.93188 7.25965 4.93188 10.14C4.93188 13.0134 7.25965 15.3481 10.14 15.3481C13.0134 15.3481 15.3481 13.0203 15.3481 10.14C15.3481 7.26655 13.0134 4.93188 10.14 4.93188ZM10.14 13.5177C8.27502 13.5177 6.76232 12.005 6.76232 10.14C6.76232 8.27502 8.27502 6.76232 10.14 6.76232C12.005 6.76232 13.5177 8.27502 13.5177 10.14C13.5177 12.005 12.005 13.5177 10.14 13.5177Z" fill="#9366D5"/>
<path d="M16.7708 4.72447C16.7708 5.39448 16.2252 5.94016 15.5552 5.94016C14.8852 5.94016 14.3395 5.39448 14.3395 4.72447C14.3395 4.05447 14.8852 3.50879 15.5552 3.50879C16.2252 3.50879 16.7708 4.05447 16.7708 4.72447Z" fill="#9366D5"/>
</g>
<defs>
<clipPath id="clip0_7_756">
<rect width="20.2798" height="20.2798" fill="white"/>
</clipPath>
</defs>
</svg>
