<svg width="22" height="21" viewBox="0 0 22 21" fill="none" xmlns="http://www.w3.org/2000/svg">
<path fill-rule="evenodd" clip-rule="evenodd" d="M4.81639 20.2798V6.59683H0.26879V20.281H4.81639V20.2798ZM2.54316 4.72909C4.12833 4.72909 5.11619 3.6769 5.11619 2.36397C5.08633 1.02232 4.12833 0 2.57303 0C1.01658 0 0 1.02232 0 2.36397C0 3.6769 0.986711 4.72909 2.5133 4.72909H2.54316Z" fill="#9366D5"/>
<path fill-rule="evenodd" clip-rule="evenodd" d="M7.33321 20.28H11.8808V12.6378C11.8808 12.2289 11.9107 11.82 12.0313 11.5282C12.3598 10.7104 13.1087 9.86493 14.3642 9.86493C16.0103 9.86493 16.6685 11.1204 16.6685 12.9595V20.28H21.2161V12.4334C21.2161 8.23037 18.9727 6.27417 15.9804 6.27417C13.5269 6.27417 12.4494 7.64569 11.8509 8.57957H11.8808V6.59695H7.33321C7.39294 7.88002 7.33321 20.28 7.33321 20.28Z" fill="#9366D5"/>
</svg>
