<svg width="22" height="21" viewBox="0 0 22 21" fill="none" xmlns="http://www.w3.org/2000/svg">
<g id="Group">
<path id="Vector" fill-rule="evenodd" clip-rule="evenodd" d="M4.81639 20.2798V6.59683H0.26879V20.281H4.81639V20.2798ZM2.54316 4.72909C4.12833 4.72909 5.11619 3.6769 5.11619 2.36397C5.08633 1.02232 4.12833 0 2.57303 0C1.01658 0 0 1.02232 0 2.36397C0 3.6769 0.986711 4.72909 2.5133 4.72909H2.54316Z" fill="#3A1E63"/>
<path id="Vector_2" fill-rule="evenodd" clip-rule="evenodd" d="M7.33319 20.2799H11.8808V12.6377C11.8808 12.2288 11.9107 11.8199 12.0313 11.5281C12.3598 10.7102 13.1087 9.86481 14.3642 9.86481C16.0103 9.86481 16.6685 11.1203 16.6685 12.9593V20.2799H21.2161V12.4333C21.2161 8.23025 18.9727 6.27405 15.9804 6.27405C13.5268 6.27405 12.4494 7.64557 11.8509 8.57944H11.8808V6.59683H7.33319C7.39292 7.8799 7.33319 20.2799 7.33319 20.2799Z" fill="#3A1E63"/>
</g>
</svg>
