<svg width="29" height="20" viewBox="0 0 29 20" fill="none" xmlns="http://www.w3.org/2000/svg">
<path d="M27.8862 3.12648C27.5601 1.89716 26.5938 0.927896 25.3667 0.602837C23.1436 0 14.2395 0 14.2395 0C14.2395 0 5.33537 0 3.1123 0.596927C1.88516 0.927896 0.924797 1.89125 0.592819 3.12648C0 5.35461 0 10 0 10C0 10 0 14.6513 0.592819 16.8794C0.918869 18.1087 1.88516 19.078 3.1123 19.4031C5.33537 20 14.2395 20 14.2395 20C14.2395 20 23.1436 20 25.3667 19.4031C26.5938 19.0721 27.5542 18.1087 27.8862 16.8794C28.479 14.6513 28.479 10 28.479 10C28.479 10 28.479 5.35461 27.8862 3.12648ZM11.3288 14.2258V5.78014L18.7746 10L11.3288 14.2258Z" fill="#9366D5"/>
</svg>
