<svg width="29" height="18" viewBox="0 0 29 18" fill="none" xmlns="http://www.w3.org/2000/svg">
<path id="Vector" d="M27.8862 2.79406C27.5601 1.72552 26.5938 0.883019 25.3667 0.600472C23.1436 0.0764771 14.2395 0.0764771 14.2395 0.0764771C14.2395 0.0764771 5.33537 0.0764771 3.1123 0.595335C1.88516 0.883019 0.924797 1.72038 0.592819 2.79406C0 4.73079 0 8.76863 0 8.76863C0 8.76863 0 12.8116 0.592819 14.7483C0.918869 15.8169 1.88516 16.6594 3.1123 16.9419C5.33537 17.4608 14.2395 17.4608 14.2395 17.4608C14.2395 17.4608 23.1436 17.4608 25.3667 16.9419C26.5938 16.6542 27.5542 15.8169 27.8862 14.7483C28.479 12.8116 28.479 8.76863 28.479 8.76863C28.479 8.76863 28.479 4.73079 27.8862 2.79406ZM11.3288 12.4417V5.10067L18.7746 8.76863L11.3288 12.4417Z" fill="#3A1E63"/>
</svg>